<svg aria-hidden="true" style="position: absolute; width: 0; height: 0; overflow: hidden;" version="1.1" xmlns="http://www.w3.org/2000/svg" xmlns:xlink="http://www.w3.org/1999/xlink">
<defs>
<symbol id="icon-piramide" viewBox="0 0 44 32">
<path d="M39.286 15.494c2.159 0 3.609 0.976 4.496 2.189v-17.275c0-0.325-0.385-0.532-0.651-0.325l-21.327 15.589h0.563c2.218 0 3.342 1.42 3.342 2.958 0 1.213-0.621 2.1-1.479 2.485-0.148 0.059-0.148 0.266 0 0.325 0.977 0.414 1.686 1.449 1.686 2.692 0 1.775-1.154 3.165-3.372 3.165h-6.064c-0.118 0-0.237-0.089-0.237-0.237v-7.336l-15.885 11.625c-0.266 0.237-0.148 0.651 0.207 0.651h42.832c0.207 0 0.355-0.148 0.355-0.355v-5.886c-1.154 1.065-2.662 1.745-4.496 1.745-3.432 0-6.212-2.366-6.212-6.005 0.029-3.668 2.84-6.005 6.241-6.005zM30.796 27.090c0 0.118-0.089 0.207-0.207 0.207h-2.041c-0.118 0-0.207-0.089-0.207-0.207v-11.211c0-0.118 0.088-0.207 0.207-0.207h2.041c0.118 0 0.207 0.089 0.207 0.207v11.211z"></path>
</symbol>
<symbol id="icon-arrow-beige" viewBox="0 0 32 32">
<path fill="#d8a876" style="fill: var(--color1, #d8a876)" d="M32 16c0 8.837-7.163 16-16 16s-16-7.163-16-16c0-8.837 7.163-16 16-16s16 7.163 16 16z"></path>
<path fill="#d8a876" style="fill: var(--color1, #d8a876)" d="M14.629 20.114l3.657-4.114-3.657-4.114z"></path>
<path fill="none" stroke="#fff" style="stroke: var(--color2, #fff)" stroke-linejoin="round" stroke-linecap="round" stroke-miterlimit="4" stroke-width="0.9143" d="M14.629 20.114l3.657-4.114-3.657-4.114"></path>
</symbol>
<symbol id="icon-call-icon" viewBox="0 0 32 32">

<path fill="#000" style="fill: var(--color2, #000); stroke: var(--color3, #00d5ff)" opacity="0.92" stroke="#00d5ff" stroke-linejoin="miter" stroke-linecap="butt" stroke-miterlimit="10" stroke-width="0.6882" d="M20.99 18.951c-0.42-0.423-1.438-1.041-1.932-1.291-0.643-0.324-0.696-0.35-1.202 0.025-0.337 0.251-0.561 0.475-0.956 0.39s-1.252-0.559-2.003-1.307c-0.751-0.748-1.253-1.631-1.337-2.024s0.143-0.615 0.391-0.953c0.35-0.476 0.323-0.556 0.024-1.199-0.233-0.5-0.869-1.509-1.294-1.927-0.455-0.449-0.455-0.37-0.748-0.248-0.239 0.1-0.467 0.222-0.684 0.364-0.424 0.281-0.659 0.515-0.823 0.866s-0.238 1.175 0.611 2.717c0.849 1.542 1.444 2.33 2.677 3.56s2.18 1.89 3.566 2.667c1.714 0.96 2.372 0.773 2.724 0.609s0.587-0.397 0.869-0.82c0.142-0.216 0.265-0.445 0.365-0.683 0.122-0.292 0.201-0.292-0.249-0.746z"></path>
</symbol>
<symbol id="icon-frame" viewBox="0 0 32 32">
<path d="M1.773 17.445l15.615-15.616v7.643c0 2.115-0.84 4.143-2.335 5.638s-3.523 2.335-5.638 2.335h-7.643z"></path>
<path d="M30.179 14.621l-15.615 15.616v-7.643c0-2.115 0.84-4.143 2.335-5.638s3.523-2.335 5.638-2.335h7.643z"></path>
</symbol>
<symbol id="icon-houses" viewBox="0 0 32 32">
<path fill="#00d5ff" style="fill: var(--color3, #00d5ff)" d="M6.667 26.667v-12.192l-2.58 1.987-0.804-1.056 12.717-9.739 12.717 9.739-0.804 1.048-2.58-1.979v12.192h-18.667zM10.667 19.693c-0.276 0-0.516-0.102-0.72-0.307s-0.307-0.444-0.307-0.72c0-0.276 0.102-0.516 0.307-0.72s0.444-0.307 0.72-0.307c0.276 0 0.516 0.102 0.72 0.307s0.307 0.444 0.307 0.72c0 0.276-0.102 0.516-0.307 0.72s-0.444 0.307-0.72 0.307zM16 19.693c-0.276 0-0.516-0.102-0.72-0.307s-0.307-0.444-0.307-0.72c0-0.276 0.102-0.516 0.307-0.72s0.444-0.307 0.72-0.307 0.516 0.102 0.72 0.307c0.204 0.204 0.307 0.444 0.307 0.72s-0.102 0.516-0.307 0.72c-0.204 0.204-0.444 0.307-0.72 0.307zM21.333 19.693c-0.276 0-0.516-0.102-0.72-0.307s-0.307-0.444-0.307-0.72c0-0.276 0.102-0.516 0.307-0.72s0.444-0.307 0.72-0.307c0.276 0 0.516 0.102 0.72 0.307s0.307 0.444 0.307 0.72c0 0.276-0.102 0.516-0.307 0.72s-0.444 0.307-0.72 0.307z"></path>
</symbol>

<symbol id="icon-buffer" viewBox="0 0 130 32">
<path d="M0 7.299l14.059-7.299 14.21 7.299-14.21 7.318-14.059-7.318zM84.403 10.844v-0.176c0-2.402 1.413-3.172 3.793-3.002v-4.392c-5.701-0.348-8.403 2.509-8.403 7.393v0.176h-2.578v4.392h2.578v13.295h4.611v-13.295h5.305v13.295h4.611v-13.295h3.793v-4.392h-3.793v-0.176c0-2.402 1.388-3.172 3.793-3.002v-4.392c-5.701-0.348-8.403 2.509-8.403 7.393v0.176h-5.305zM52.177 15.653c1.462-1.163 2.354-2.825 2.354-4.96 0-4.14-3.371-6.97-7.61-6.97h-9.842v24.758h10.635c4.338 0 7.809-2.926 7.809-7.166-0.049-2.559-1.339-4.519-3.346-5.662zM46.946 8.31c1.587 0 2.678 1.168 2.678 2.73 0 1.567-1.141 2.729-2.678 2.729h-4.932v-5.459h4.932zM47.69 23.944h-5.676v-5.833h5.676c1.686 0 2.9 1.239 2.9 2.9 0 1.688-1.214 2.933-2.9 2.933zM69.901 10.818v9.549c0 3.077-1.685 4.392-3.941 4.392-2.083 0-3.545-1.239-3.545-3.647v-10.294h-4.611v10.863c0 4.714 2.95 7.324 6.768 7.324 2.404 0 4.263-0.897 5.305-2.483v1.984h4.61v-17.688h-4.586zM117.223 21.536h-13.485c0.669 2.332 2.602 3.324 5.007 3.324 1.809 0 3.247-0.746 4.016-1.763l3.718 2.111c-1.661 2.407-4.339 3.798-7.784 3.798-5.999 0-9.791-4.069-9.791-9.352 0-5.289 3.818-9.359 9.444-9.359 5.281 0 9.048 4.146 9.048 9.359 0 0.689-0.074 1.289-0.174 1.882zM108.349 14.44c-2.478 0-4.165 1.314-4.685 3.57h9.123c-0.57-2.552-2.504-3.57-4.437-3.57zM124.065 13.87v-3.052h-4.611v17.688h4.611v-8.461c0-3.723 3.025-4.784 5.428-4.487v-5.086c-2.255 0-4.511 0.992-5.428 3.399zM14.059 27.135l-9.592-5.213-4.468 2.42 14.059 7.633 14.21-7.633-4.518-2.42-9.692 5.213zM4.468 13.7l9.592 4.726 9.692-4.726 4.518 2.205-14.21 6.932-14.059-6.932 4.468-2.205z"></path>
</symbol>
<symbol id="icon-vector-1" viewBox="0 0 15 32">
<path d="M15.289 0.035v31.93c-8.339-0.549-14.933-7.487-14.933-15.965s6.594-15.416 14.933-15.965z"></path>
</symbol>
<symbol id="icon-vector-2" viewBox="0 0 15 32">
<path d="M15.289 0.035c-8.339 0.549-14.933 7.487-14.933 15.965v16h14.933v-31.965z"></path>
</symbol>
<symbol id="icon-vector-3" viewBox="0 0 33 32">
<path d="M16.356 32c-8.836 0-16-7.163-16-16s7.164-16 16-16c8.836 0 16 7.163 16 16s-7.164 16-16 16zM16.356 2.667c-0.589 0-1.067 0.478-1.067 1.067v24.533c0 0.589 0.478 1.067 1.067 1.067s1.067-0.478 1.067-1.067v-24.533c0-0.589-0.478-1.067-1.067-1.067z"></path>
</symbol>
<symbol id="icon-vector-4" viewBox="0 0 33 32">
<path d="M16.356 0h-16v32h14.933v-28.267c0-0.589 0.478-1.067 1.067-1.067s1.067 0.478 1.067 1.067v28.267h14.933v-16c0-8.837-7.164-16-16-16z"></path>
</symbol>

</defs>
<defs>
<symbol id="icon-facebook" viewBox="0 0 32 32">
<path d="M19 6h5v-6h-5c-3.86 0-7 3.14-7 7v3h-4v6h4v16h6v-16h5l1-6h-6v-3c0-0.542 0.458-1 1-1z"></path>
</symbol>
<symbol id="icon-twitter" viewBox="0 0 32 32">
<path d="M32 7.075c-1.175 0.525-2.444 0.875-3.769 1.031 1.356-0.813 2.394-2.1 2.887-3.631-1.269 0.75-2.675 1.3-4.169 1.594-1.2-1.275-2.906-2.069-4.794-2.069-3.625 0-6.563 2.938-6.563 6.563 0 0.512 0.056 1.012 0.169 1.494-5.456-0.275-10.294-2.888-13.531-6.862-0.563 0.969-0.887 2.1-0.887 3.3 0 2.275 1.156 4.287 2.919 5.463-1.075-0.031-2.087-0.331-2.975-0.819 0 0.025 0 0.056 0 0.081 0 3.181 2.263 5.838 5.269 6.437-0.55 0.15-1.131 0.231-1.731 0.231-0.425 0-0.831-0.044-1.237-0.119 0.838 2.606 3.263 4.506 6.131 4.563-2.25 1.762-5.075 2.813-8.156 2.813-0.531 0-1.050-0.031-1.569-0.094 2.913 1.869 6.362 2.95 10.069 2.95 12.075 0 18.681-10.006 18.681-18.681 0-0.287-0.006-0.569-0.019-0.85 1.281-0.919 2.394-2.075 3.275-3.394z"></path>
</symbol>
<symbol id="icon-linkedin2" viewBox="0 0 32 32">
<path d="M12 12h5.535v2.837h0.079c0.77-1.381 2.655-2.837 5.464-2.837 5.842 0 6.922 3.637 6.922 8.367v9.633h-5.769v-8.54c0-2.037-0.042-4.657-3.001-4.657-3.005 0-3.463 2.218-3.463 4.509v8.688h-5.767v-18z"></path>
<path d="M2 12h6v18h-6v-18z"></path>
<path d="M8 7c0 1.657-1.343 3-3 3s-3-1.343-3-3c0-1.657 1.343-3 3-3s3 1.343 3 3z"></path>
</symbol>
<symbol id="icon-instagram" viewBox="0 0 32 32">
<path d="M16 2.881c4.275 0 4.781 0.019 6.462 0.094 1.563 0.069 2.406 0.331 2.969 0.55 0.744 0.288 1.281 0.638 1.837 1.194 0.563 0.563 0.906 1.094 1.2 1.838 0.219 0.563 0.481 1.412 0.55 2.969 0.075 1.688 0.094 2.194 0.094 6.463s-0.019 4.781-0.094 6.463c-0.069 1.563-0.331 2.406-0.55 2.969-0.288 0.744-0.637 1.281-1.194 1.837-0.563 0.563-1.094 0.906-1.837 1.2-0.563 0.219-1.413 0.481-2.969 0.55-1.688 0.075-2.194 0.094-6.463 0.094s-4.781-0.019-6.463-0.094c-1.563-0.069-2.406-0.331-2.969-0.55-0.744-0.288-1.281-0.637-1.838-1.194-0.563-0.563-0.906-1.094-1.2-1.837-0.219-0.563-0.481-1.413-0.55-2.969-0.075-1.688-0.094-2.194-0.094-6.463s0.019-4.781 0.094-6.463c0.069-1.563 0.331-2.406 0.55-2.969 0.288-0.744 0.638-1.281 1.194-1.838 0.563-0.563 1.094-0.906 1.838-1.2 0.563-0.219 1.412-0.481 2.969-0.55 1.681-0.075 2.188-0.094 6.463-0.094zM16 0c-4.344 0-4.887 0.019-6.594 0.094-1.7 0.075-2.869 0.35-3.881 0.744-1.056 0.412-1.95 0.956-2.837 1.85-0.894 0.888-1.438 1.781-1.85 2.831-0.394 1.019-0.669 2.181-0.744 3.881-0.075 1.713-0.094 2.256-0.094 6.6s0.019 4.887 0.094 6.594c0.075 1.7 0.35 2.869 0.744 3.881 0.413 1.056 0.956 1.95 1.85 2.837 0.887 0.887 1.781 1.438 2.831 1.844 1.019 0.394 2.181 0.669 3.881 0.744 1.706 0.075 2.25 0.094 6.594 0.094s4.888-0.019 6.594-0.094c1.7-0.075 2.869-0.35 3.881-0.744 1.050-0.406 1.944-0.956 2.831-1.844s1.438-1.781 1.844-2.831c0.394-1.019 0.669-2.181 0.744-3.881 0.075-1.706 0.094-2.25 0.094-6.594s-0.019-4.887-0.094-6.594c-0.075-1.7-0.35-2.869-0.744-3.881-0.394-1.063-0.938-1.956-1.831-2.844-0.887-0.887-1.781-1.438-2.831-1.844-1.019-0.394-2.181-0.669-3.881-0.744-1.712-0.081-2.256-0.1-6.6-0.1v0z"></path>
<path d="M16 7.781c-4.537 0-8.219 3.681-8.219 8.219s3.681 8.219 8.219 8.219 8.219-3.681 8.219-8.219c0-4.537-3.681-8.219-8.219-8.219zM16 21.331c-2.944 0-5.331-2.387-5.331-5.331s2.387-5.331 5.331-5.331c2.944 0 5.331 2.387 5.331 5.331s-2.387 5.331-5.331 5.331z"></path>
<path d="M26.462 7.456c0 1.060-0.859 1.919-1.919 1.919s-1.919-0.859-1.919-1.919c0-1.060 0.859-1.919 1.919-1.919s1.919 0.859 1.919 1.919z"></path>
</symbol>
</defs>
<defs>
<symbol id="vector-2" viewBox="0 0 51 32">
<path d="M4.041 30.062h28.698c8.282 0 13.606-4.733 13.606-12.128 0-7.1-5.325-12.128-13.606-12.128h-29.875c-0.595 0-1.186 0.591-1.186 1.183v21.002c0 1.183 1.186 2.071 2.363 2.071z"></path>
</symbol>
<symbol id="vector-3" viewBox="0 0 51 32">
<path d="M4.041 27.374h29.882c9.165 0 14.784-5.028 14.784-13.311 0-7.395-5.318-13.311-14.784-13.311h-29.882c-1.178 0-2.363 0.888-2.363 2.366v21.89c0 1.183 1.186 2.366 2.363 2.366z"></path>
</symbol>
<symbol id="vector-4" viewBox="0 0 34 32">
<path d="M25.84 6.671c-2.161-2.844-5.802-5.12-10.124-5.12-8.192 0-14.107 6.257-14.107 14.676s5.915 14.676 14.107 14.676c3.754 0 7.281-1.593 9.216-3.185 0.113-0.114 0.226-0.341 0.226-0.569v-4.323c0-0.341-0.342-0.683-0.682-0.683h-10.127c-0.569 0-0.911-0.455-0.911-0.91v-6.371c0-0.569 0.455-0.91 0.911-0.91h18.772v-10.126l-6.028 3.299c-0.455 0.114-1.024-0.114-1.253-0.455z"></path>
</symbol>

</defs>
</svg>
